<svg xmlns="http://www.w3.org/2000/svg" viewBox="160 92 444 70" role="img" aria-label="METEOR LIFT">
  <style>.st0{fill:#182F60}.st1{fill:#E23E45}</style>
  <g>
    <polygon class="st0" points="219.16,97.41 197.57,133.81 175.61,97.41 164.39,97.41 164.39,156.04 177.12,156.04 177.12,121.61 194.29,149.84 200.4,149.84 217.66,120.85 217.74,156.04 230.47,156.04 230.3,97.41"/>
    <path class="st0" d="M431.49,145.48c2.62,0,5.04-.45,7.24-1.34,2.21-.89,4.14-2.18,5.82-3.85,1.67-1.67,2.97-3.66,3.89-5.95.92-2.29,1.38-4.83,1.38-7.62s-.46-5.33-1.38-7.62c-.92-2.29-2.21-4.27-3.85-5.95-1.65-1.67-3.59-2.96-5.82-3.85-2.24-.89-4.66-1.34-7.29-1.34-2.62,0-5.04.45-7.24,1.34-2.21.89-4.15,2.18-5.82,3.85-1.67,1.67-2.97,3.66-3.89,5.95-.92,2.29-1.38,4.83-1.38,7.62,0,2.74.46,5.26,1.38,7.58.92,2.32,2.21,4.31,3.85,5.99,1.65,1.67,3.59,2.96,5.82,3.85,2.23.9,4.66,1.34,7.29,1.34m.08,11.56c-4.63,0-8.92-.75-12.85-2.26-3.94-1.51-7.34-3.63-10.22-6.37-2.88-2.73-5.11-5.95-6.7-9.63-1.59-3.68-2.39-7.7-2.39-12.06s.8-8.37,2.39-12.06c1.59-3.69,3.84-6.89,6.74-9.63,2.9-2.74,6.31-4.86,10.22-6.37,3.91-1.51,8.15-2.26,12.73-2.26,4.63,0,8.89.75,12.77,2.26,3.88,1.51,7.26,3.63,10.13,6.37,2.87,2.74,5.12,5.93,6.74,9.59,1.62,3.66,2.43,7.69,2.43,12.1,0,4.36-.81,8.39-2.43,12.1-1.62,3.71-3.87,6.92-6.74,9.63-2.88,2.71-6.25,4.81-10.13,6.32-3.88,1.52-8.11,2.27-12.69,2.27"/>
    <path class="st0" d="M504.84,111.15c2.06,1.79,3.1,4.3,3.1,7.54,0,3.18-1.03,5.68-3.1,7.49-2.07,1.82-5.19,2.72-9.38,2.72h-11.05v-20.43h11.05c4.19,0,7.31.89,9.38,2.68m17.92,44.89-13.1-18.8c.04-.02.08-.03.12-.04,3.8-1.67,6.73-4.09,8.79-7.24,2.06-3.15,3.1-6.91,3.1-11.26,0-4.41-1.03-8.21-3.1-11.39-2.07-3.18-5-5.62-8.79-7.33-3.8-1.7-8.32-2.55-13.57-2.55h-25.37v58.62h13.57v-16.33h11.81c.22,0,.41-.02.62-.03l11.27,16.36h14.65z"/>
    <polygon class="st0" points="289.54,97.41 289.54,109.34 308.3,109.34 308.3,156.03 321.86,156.03 321.86,109.27 340.62,109.27 340.62,97.41"/>
    <rect class="st0" x="237.76" y="97.43" width="44.3" height="11.88"/>
    <rect class="st0" x="237.76" y="120.79" width="44.23" height="11.84"/>
    <rect class="st0" x="237.76" y="144.11" width="44.23" height="11.84"/>
    <rect class="st0" x="348.09" y="97.43" width="44.3" height="11.88"/>
    <rect class="st0" x="348.09" y="120.79" width="44.23" height="11.84"/>
    <rect class="st0" x="348.08" y="144.11" width="44.23" height="11.84"/>
    <polygon class="st0" points="543.68,112.61 543.74,116.48 536.34,116.48 536.34,97.41 530.63,97.41 530.63,121.13 549.45,121.13 549.45,121.12 549.39,112.61"/>
    <polygon class="st0" points="571.31,101.99 571.31,97.41 554.35,97.41 554.35,121.13 560.06,121.13 560.06,112.15 568.72,112.15 568.72,107.57 560.06,107.57 560.06,101.99"/>
    <path class="st1" d="M550.31,101.13c0,2.05-1.67,3.72-3.72,3.72s-3.72-1.67-3.72-3.72c0-2.05,1.66-3.72,3.72-3.72s3.72,1.67,3.72,3.72"/>
    <polygon class="st0" points="584.93,96.05 574.19,100.52 574.19,106.1 582.1,102.81 582.1,121.13 587.79,121.13 587.79,102.81 595.68,106.1 595.68,100.52"/>
  </g>
</svg>
